<svg width="1306" height="805" xmlns="http://www.w3.org/2000/svg" xmlns:xlink="http://www.w3.org/1999/xlink" xml:space="preserve" overflow="hidden"><defs><clipPath id="clip0"><rect x="1547" y="835" width="1306" height="805"/></clipPath></defs><g clip-path="url(#clip0)" transform="translate(-1547 -835)"><rect x="1547" y="835" width="1306" height="805" fill="#FFFFFF"/><rect x="1940.5" y="978.5" width="520" height="519" stroke="#000000" stroke-width="4.58333" stroke-miterlimit="8" fill="none"/><path d="M1943.5 933.208 2440.27 933.208 2440.27 937.792 1943.5 937.792ZM2435.69 921.75 2463.19 935.5 2435.69 949.25Z"/><path d="M2059.67 878.283C2060.82 878.283 2061.72 878.668 2062.38 879.438 2063.05 880.207 2063.38 881.246 2063.38 882.553 2063.38 883.967 2063.1 885.731 2062.55 887.843L2061.36 892.489C2061.06 893.671 2060.84 894.593 2060.71 895.255 2060.57 895.918 2060.47 896.491 2060.41 896.974 2060.35 897.458 2060.32 897.86 2060.32 898.183 2060.32 899.418 2060.52 900.309 2060.93 900.855 2061.35 901.401 2062.02 901.674 2062.95 901.674 2063.7 901.674 2064.51 901.374 2065.38 900.774 2066.25 900.174 2067.17 899.27 2068.14 898.062 2069.12 896.853 2069.9 895.681 2070.49 894.544 2071.09 893.407 2071.57 892.006 2071.94 890.341L2074.5 878.712 2079.14 878.712 2075.22 895.739C2074.83 897.458 2074.63 898.782 2074.63 899.713 2074.63 900.43 2074.75 900.949 2074.98 901.271 2075.21 901.593 2075.58 901.754 2076.08 901.754 2076.62 901.754 2077.19 901.535 2077.8 901.096 2078.41 900.658 2079.27 899.821 2080.38 898.585L2081.91 900.089C2080.28 901.826 2078.89 903.052 2077.75 903.769 2076.6 904.485 2075.38 904.843 2074.09 904.843 2072.98 904.843 2072.1 904.476 2071.43 903.742 2070.77 903.008 2070.44 902.032 2070.44 900.814 2070.44 899.848 2070.66 898.791 2071.09 897.646L2070.76 897.538C2068.99 900.027 2067.31 901.862 2065.73 903.043 2064.14 904.225 2062.52 904.816 2060.85 904.816 2059.19 904.816 2057.91 904.337 2057.01 903.379 2056.12 902.421 2055.67 901.092 2055.67 899.391 2055.67 898.263 2055.93 896.661 2056.45 894.584L2058.19 887.548C2058.68 885.596 2058.92 884.218 2058.92 883.412 2058.92 882.696 2058.8 882.177 2058.57 881.854 2058.34 881.532 2057.97 881.371 2057.47 881.371 2056.91 881.371 2056.33 881.599 2055.71 882.056 2055.09 882.512 2054.25 883.341 2053.17 884.54L2051.64 883.036C2053.16 881.496 2054.31 880.44 2055.08 879.867 2055.85 879.294 2056.59 878.887 2057.29 878.645 2058 878.404 2058.79 878.283 2059.67 878.283Z" fill-rule="evenodd"/><text fill="#000000" fill-opacity="0" font-family="Arial,Arial_MSFontService,sans-serif" font-size="26.5601" x="2051.64" y="901.523">𝑢</text><path d="M2103.19 892.489 2136.28 892.489 2136.28 896.061 2103.19 896.061ZM2103.19 881.344 2136.28 881.344 2136.28 884.916 2103.19 884.916Z" fill-rule="evenodd"/><text fill="#000000" fill-opacity="0" font-family="Arial,Arial_MSFontService,sans-serif" font-size="14.7168" x="2103.19" y="894.221">=</text><path d="M2162.41 867.755 2173.21 867.755 2172.91 869.071C2172.23 869.215 2171.75 869.376 2171.45 869.555 2171.16 869.734 2170.89 870.002 2170.64 870.36 2170.4 870.718 2170.16 871.278 2169.92 872.039 2169.68 872.8 2169.37 874.04 2168.99 875.758L2165.64 890.797C2165.4 891.818 2165.22 892.789 2165.09 893.711 2164.95 894.633 2164.88 895.587 2164.88 896.571 2164.88 898.523 2165.36 900 2166.32 901.002 2167.28 902.005 2168.72 902.506 2170.66 902.506 2172.48 902.506 2174.01 902.13 2175.22 901.378 2176.44 900.626 2177.42 899.543 2178.15 898.129 2178.89 896.715 2179.5 894.879 2180 892.624L2183.74 875.731C2184.13 873.941 2184.33 872.5 2184.33 871.408 2184.33 870.566 2184.12 869.98 2183.7 869.649 2183.28 869.317 2182.61 869.125 2181.7 869.071L2181.99 867.755 2192.2 867.755 2191.9 869.071C2191.24 869.215 2190.75 869.38 2190.44 869.568 2190.12 869.756 2189.85 870.029 2189.6 870.387 2189.36 870.745 2189.13 871.309 2188.89 872.079 2188.66 872.849 2188.36 874.075 2187.98 875.758L2184.49 891.845C2183.79 895.049 2182.81 897.601 2181.53 899.499 2180.26 901.396 2178.67 902.766 2176.77 903.607 2174.86 904.449 2172.53 904.87 2169.77 904.87 2166.67 904.87 2164.3 904.122 2162.66 902.627 2161.01 901.132 2160.18 898.952 2160.18 896.088 2160.18 895.085 2160.29 893.935 2160.49 892.637 2160.7 891.339 2160.99 889.875 2161.37 888.246L2164.16 875.731C2164.57 873.887 2164.78 872.446 2164.78 871.408 2164.78 870.602 2164.57 870.025 2164.16 869.676 2163.75 869.326 2163.07 869.125 2162.12 869.071Z" fill-rule="evenodd"/><text fill="#000000" fill-opacity="0" font-family="Arial,Arial_MSFontService,sans-serif" font-size="37.1143" x="2160.18" y="900.23">𝑈</text><path d="M2198.21 898.183 2202.91 898.183C2203.17 899.436 2203.29 900.671 2203.29 901.889 2203.29 903.142 2203.08 904.288 2202.65 905.326 2202.22 906.365 2201.53 907.398 2200.59 908.428 2199.65 909.457 2198.36 910.59 2196.71 911.825L2195.26 910.187C2196.17 909.328 2196.84 908.553 2197.25 907.864 2197.66 907.175 2197.96 906.391 2198.13 905.514 2198.31 904.637 2198.4 903.536 2198.4 902.211 2198.4 900.85 2198.34 899.508 2198.21 898.183Z" fill-rule="evenodd"/><text fill="#000000" fill-opacity="0" font-family="Arial,Arial_MSFontService,sans-serif" font-size="13.6426" x="2195.26" y="910.12">,</text><path d="M2240.67 878.175C2241.96 878.175 2242.89 878.511 2243.47 879.182 2244.04 879.854 2244.33 880.753 2244.33 881.881 2244.33 882.741 2244.17 883.725 2243.87 884.835 2243.56 885.945 2243.13 887.118 2242.58 888.354 2242.02 889.589 2241.36 890.856 2240.59 892.154 2239.82 893.452 2238.97 894.714 2238.04 895.94 2237.11 897.167 2236.12 898.321 2235.06 899.405 2234 900.488 2232.91 901.432 2231.77 902.238 2230.63 903.043 2229.48 903.684 2228.31 904.158 2227.13 904.632 2225.97 904.87 2224.8 904.87 2224.28 904.87 2223.85 904.74 2223.5 904.48 2223.15 904.221 2222.87 903.854 2222.65 903.379 2222.44 902.905 2222.29 902.345 2222.2 901.701 2222.11 901.056 2222.06 900.349 2222.06 899.579 2222.06 898.559 2222.12 897.466 2222.25 896.303 2222.38 895.139 2222.54 893.966 2222.73 892.785L2223.86 885.346C2223.93 884.916 2223.99 884.509 2224.04 884.124 2224.08 883.739 2224.1 883.457 2224.1 883.278 2224.1 882.723 2224.01 882.266 2223.83 881.908 2223.66 881.55 2223.35 881.371 2222.92 881.371 2222.58 881.371 2222.21 881.474 2221.82 881.68 2221.43 881.886 2221.03 882.15 2220.63 882.472 2220.22 882.794 2219.83 883.139 2219.46 883.506 2219.08 883.873 2218.73 884.218 2218.41 884.54L2217.12 883.036C2217.68 882.463 2218.27 881.895 2218.89 881.331 2219.52 880.767 2220.18 880.257 2220.88 879.8 2221.58 879.344 2222.31 878.977 2223.08 878.699 2223.85 878.421 2224.64 878.283 2225.45 878.283 2226.13 878.283 2226.68 878.395 2227.11 878.618 2227.54 878.842 2227.88 879.138 2228.12 879.505 2228.36 879.872 2228.53 880.274 2228.61 880.713 2228.7 881.152 2228.75 881.586 2228.75 882.016 2228.75 882.266 2228.74 882.508 2228.72 882.741 2228.7 882.973 2228.68 883.188 2228.64 883.385L2227.14 893.107C2226.98 894.127 2226.84 895.126 2226.74 896.101 2226.63 897.077 2226.57 897.941 2226.57 898.693 2226.57 899.445 2226.62 900.054 2226.71 900.519 2226.8 900.985 2226.97 901.217 2227.22 901.217 2227.81 901.217 2228.55 900.98 2229.45 900.506 2230.34 900.031 2231.28 899.378 2232.27 898.545 2233.25 897.713 2234.24 896.728 2235.22 895.591 2236.21 894.454 2237.09 893.223 2237.88 891.898 2238.67 890.574 2239.31 889.177 2239.8 887.709 2240.29 886.241 2240.54 884.764 2240.54 883.278 2240.54 882.633 2240.4 882.136 2240.12 881.787 2239.84 881.438 2239.41 881.264 2238.82 881.264 2238.07 881.264 2237.37 881.555 2236.74 882.136 2236.1 882.718 2235.45 883.484 2234.76 884.433L2233.23 883.063C2233.66 882.418 2234.17 881.801 2234.75 881.21 2235.33 880.619 2235.95 880.1 2236.6 879.652 2237.26 879.205 2237.93 878.847 2238.63 878.578 2239.33 878.31 2240.01 878.175 2240.67 878.175Z" fill-rule="evenodd"/><text fill="#000000" fill-opacity="0" font-family="Arial,Arial_MSFontService,sans-serif" font-size="26.6943" x="2217.12" y="901.533">𝑣</text><path d="M2265.92 892.489 2299.01 892.489 2299.01 896.061 2265.92 896.061ZM2265.92 881.344 2299.01 881.344 2299.01 884.916 2265.92 884.916Z" fill-rule="evenodd"/><text fill="#000000" fill-opacity="0" font-family="Arial,Arial_MSFontService,sans-serif" font-size="14.7168" x="2265.92" y="894.221">=</text><path d="M2333.68 869.608C2332.45 869.608 2331.42 869.975 2330.58 870.709 2329.75 871.444 2329.08 872.5 2328.57 873.878 2328.06 875.257 2327.7 876.935 2327.48 878.914 2327.27 880.892 2327.16 883.126 2327.16 885.614 2327.16 891.451 2327.7 895.734 2328.78 898.465 2329.87 901.195 2331.55 902.56 2333.82 902.56 2335.99 902.56 2337.59 901.275 2338.64 898.706 2339.69 896.137 2340.21 892.158 2340.21 886.769 2340.21 882.651 2339.94 879.317 2339.41 876.765 2338.87 874.214 2338.12 872.383 2337.16 871.273 2336.2 870.163 2335.05 869.608 2333.68 869.608ZM2333.82 867.326C2337.74 867.326 2340.66 868.839 2342.57 871.864 2344.49 874.89 2345.45 879.464 2345.45 885.587 2345.45 891.925 2344.42 896.719 2342.37 899.969 2340.32 903.218 2337.33 904.843 2333.39 904.843 2329.52 904.843 2326.64 903.321 2324.76 900.277 2322.87 897.234 2321.92 892.615 2321.92 886.42 2321.92 883.126 2322.21 880.279 2322.79 877.88 2323.38 875.481 2324.19 873.498 2325.24 871.931 2326.29 870.365 2327.54 869.206 2329.01 868.454 2330.48 867.702 2332.08 867.326 2333.82 867.326Z" fill-rule="evenodd"/><text fill="#000000" fill-opacity="0" font-family="Arial,Arial_MSFontService,sans-serif" font-size="37.5171" x="2321.92" y="900.153">0</text><path d="M1631.5 1230.89C1632.64 1230.89 1633.55 1231.28 1634.21 1232.05 1634.87 1232.82 1635.2 1233.86 1635.2 1235.16 1635.2 1236.58 1634.93 1238.34 1634.37 1240.45L1633.19 1245.1C1632.89 1246.28 1632.67 1247.2 1632.53 1247.87 1632.4 1248.53 1632.3 1249.1 1632.24 1249.58 1632.17 1250.07 1632.14 1250.47 1632.14 1250.79 1632.14 1252.03 1632.35 1252.92 1632.76 1253.46 1633.17 1254.01 1633.84 1254.28 1634.77 1254.28 1635.53 1254.28 1636.34 1253.98 1637.2 1253.38 1638.07 1252.78 1638.99 1251.88 1639.97 1250.67 1640.95 1249.46 1641.73 1248.29 1642.32 1247.15 1642.91 1246.02 1643.39 1244.62 1643.77 1242.95L1646.32 1231.32 1650.97 1231.32 1647.05 1248.35C1646.65 1250.07 1646.46 1251.39 1646.46 1252.32 1646.46 1253.04 1646.57 1253.56 1646.81 1253.88 1647.04 1254.2 1647.41 1254.36 1647.91 1254.36 1648.44 1254.36 1649.02 1254.14 1649.63 1253.71 1650.23 1253.27 1651.09 1252.43 1652.2 1251.2L1653.73 1252.7C1652.1 1254.44 1650.72 1255.66 1649.57 1256.38 1648.43 1257.09 1647.21 1257.45 1645.92 1257.45 1644.81 1257.45 1643.92 1257.09 1643.26 1256.35 1642.6 1255.62 1642.27 1254.64 1642.27 1253.42 1642.27 1252.46 1642.48 1251.4 1642.91 1250.26L1642.59 1250.15C1640.82 1252.64 1639.14 1254.47 1637.55 1255.65 1635.97 1256.83 1634.34 1257.43 1632.68 1257.43 1631.01 1257.43 1629.73 1256.95 1628.84 1255.99 1627.94 1255.03 1627.5 1253.7 1627.5 1252 1627.5 1250.87 1627.76 1249.27 1628.28 1247.19L1630.02 1240.16C1630.5 1238.21 1630.75 1236.83 1630.75 1236.02 1630.75 1235.31 1630.63 1234.79 1630.4 1234.46 1630.16 1234.14 1629.8 1233.98 1629.3 1233.98 1628.74 1233.98 1628.15 1234.21 1627.54 1234.67 1626.92 1235.12 1626.07 1235.95 1625 1237.15L1623.47 1235.65C1624.99 1234.11 1626.14 1233.05 1626.91 1232.48 1627.68 1231.9 1628.41 1231.5 1629.12 1231.26 1629.83 1231.01 1630.62 1230.89 1631.5 1230.89Z" fill-rule="evenodd"/><text fill="#000000" fill-opacity="0" font-family="Arial,Arial_MSFontService,sans-serif" font-size="26.5601" x="1623.47" y="1254.13">𝑢</text><path d="M1675.02 1245.1 1708.1 1245.1 1708.1 1248.67 1675.02 1248.67ZM1675.02 1233.95 1708.1 1233.95 1708.1 1237.53 1675.02 1237.53Z" fill-rule="evenodd"/><text fill="#000000" fill-opacity="0" font-family="Arial,Arial_MSFontService,sans-serif" font-size="14.7168" x="1675.02" y="1246.83">=</text><path d="M1752.98 1230.79C1754.27 1230.79 1755.2 1231.12 1755.78 1231.79 1756.35 1232.46 1756.64 1233.36 1756.64 1234.49 1756.64 1235.35 1756.48 1236.34 1756.18 1237.45 1755.88 1238.56 1755.45 1239.73 1754.89 1240.96 1754.34 1242.2 1753.67 1243.47 1752.9 1244.76 1752.13 1246.06 1751.28 1247.32 1750.35 1248.55 1749.42 1249.78 1748.43 1250.93 1747.37 1252.01 1746.32 1253.1 1745.22 1254.04 1744.08 1254.85 1742.95 1255.65 1741.79 1256.29 1740.62 1256.77 1739.45 1257.24 1738.28 1257.48 1737.11 1257.48 1736.59 1257.48 1736.16 1257.35 1735.81 1257.09 1735.46 1256.83 1735.18 1256.46 1734.96 1255.99 1734.75 1255.51 1734.6 1254.96 1734.51 1254.31 1734.42 1253.67 1734.37 1252.96 1734.37 1252.19 1734.37 1251.17 1734.44 1250.08 1734.56 1248.91 1734.69 1247.75 1734.85 1246.58 1735.05 1245.39L1736.17 1237.96C1736.24 1237.53 1736.3 1237.12 1736.35 1236.73 1736.39 1236.35 1736.41 1236.07 1736.41 1235.89 1736.41 1235.33 1736.33 1234.88 1736.15 1234.52 1735.97 1234.16 1735.66 1233.98 1735.23 1233.98 1734.89 1233.98 1734.53 1234.08 1734.13 1234.29 1733.74 1234.5 1733.34 1234.76 1732.94 1235.08 1732.53 1235.4 1732.14 1235.75 1731.77 1236.12 1731.39 1236.48 1731.04 1236.83 1730.72 1237.15L1729.43 1235.65C1729.99 1235.07 1730.58 1234.5 1731.2 1233.94 1731.83 1233.38 1732.49 1232.87 1733.19 1232.41 1733.89 1231.95 1734.62 1231.59 1735.39 1231.31 1736.16 1231.03 1736.95 1230.89 1737.76 1230.89 1738.44 1230.89 1738.99 1231 1739.42 1231.23 1739.85 1231.45 1740.19 1231.75 1740.43 1232.11 1740.67 1232.48 1740.84 1232.88 1740.93 1233.32 1741.02 1233.76 1741.06 1234.2 1741.06 1234.63 1741.06 1234.88 1741.05 1235.12 1741.03 1235.35 1741.02 1235.58 1740.99 1235.8 1740.95 1236L1739.45 1245.72C1739.29 1246.74 1739.15 1247.74 1739.05 1248.71 1738.94 1249.69 1738.89 1250.55 1738.89 1251.3 1738.89 1252.05 1738.93 1252.66 1739.02 1253.13 1739.11 1253.59 1739.28 1253.83 1739.53 1253.83 1740.12 1253.83 1740.86 1253.59 1741.76 1253.12 1742.65 1252.64 1743.59 1251.99 1744.58 1251.16 1745.56 1250.32 1746.55 1249.34 1747.53 1248.2 1748.52 1247.06 1749.4 1245.83 1750.19 1244.51 1750.98 1243.18 1751.62 1241.79 1752.11 1240.32 1752.6 1238.85 1752.85 1237.37 1752.85 1235.89 1752.85 1235.24 1752.71 1234.75 1752.43 1234.4 1752.16 1234.05 1751.72 1233.87 1751.13 1233.87 1750.38 1233.87 1749.69 1234.16 1749.05 1234.75 1748.41 1235.33 1747.76 1236.09 1747.08 1237.04L1745.55 1235.67C1745.98 1235.03 1746.48 1234.41 1747.06 1233.82 1747.65 1233.23 1748.26 1232.71 1748.92 1232.26 1749.57 1231.81 1750.25 1231.46 1750.94 1231.19 1751.64 1230.92 1752.32 1230.79 1752.98 1230.79Z" fill-rule="evenodd"/><text fill="#000000" fill-opacity="0" font-family="Arial,Arial_MSFontService,sans-serif" font-size="26.6943" x="1729.43" y="1254.14">𝑣</text><path d="M1778.24 1245.1 1811.32 1245.1 1811.32 1248.67 1778.24 1248.67ZM1778.24 1233.95 1811.32 1233.95 1811.32 1237.53 1778.24 1237.53Z" fill-rule="evenodd"/><text fill="#000000" fill-opacity="0" font-family="Arial,Arial_MSFontService,sans-serif" font-size="14.7168" x="1778.24" y="1246.83">=</text><path d="M1846 1222.22C1844.76 1222.22 1843.73 1222.59 1842.89 1223.32 1842.06 1224.05 1841.39 1225.11 1840.88 1226.49 1840.37 1227.87 1840.01 1229.55 1839.79 1231.52 1839.58 1233.5 1839.47 1235.74 1839.47 1238.22 1839.47 1244.06 1840.01 1248.34 1841.1 1251.07 1842.18 1253.8 1843.86 1255.17 1846.13 1255.17 1848.3 1255.17 1849.9 1253.89 1850.95 1251.32 1852 1248.75 1852.52 1244.77 1852.52 1239.38 1852.52 1235.26 1852.25 1231.93 1851.72 1229.38 1851.18 1226.82 1850.43 1224.99 1849.47 1223.88 1848.52 1222.77 1847.36 1222.22 1846 1222.22ZM1846.13 1219.94C1850.05 1219.94 1852.97 1221.45 1854.89 1224.47 1856.8 1227.5 1857.76 1232.07 1857.76 1238.2 1857.76 1244.54 1856.73 1249.33 1854.68 1252.58 1852.63 1255.83 1849.64 1257.45 1845.7 1257.45 1841.83 1257.45 1838.96 1255.93 1837.07 1252.89 1835.18 1249.84 1834.23 1245.22 1834.23 1239.03 1834.23 1235.74 1834.52 1232.89 1835.11 1230.49 1835.69 1228.09 1836.5 1226.11 1837.55 1224.54 1838.6 1222.97 1839.86 1221.82 1841.32 1221.06 1842.79 1220.31 1844.39 1219.94 1846.13 1219.94Z" fill-rule="evenodd"/><text fill="#000000" fill-opacity="0" font-family="Arial,Arial_MSFontService,sans-serif" font-size="37.5171" x="1834.23" y="1252.76">0</text><path d="M2547.47 1230.89C2548.62 1230.89 2549.52 1231.28 2550.19 1232.05 2550.85 1232.82 2551.18 1233.86 2551.18 1235.16 2551.18 1236.58 2550.9 1238.34 2550.35 1240.45L2549.17 1245.1C2548.86 1246.28 2548.64 1247.2 2548.51 1247.87 2548.37 1248.53 2548.28 1249.1 2548.21 1249.58 2548.15 1250.07 2548.12 1250.47 2548.12 1250.79 2548.12 1252.03 2548.32 1252.92 2548.74 1253.46 2549.15 1254.01 2549.82 1254.28 2550.75 1254.28 2551.5 1254.28 2552.31 1253.98 2553.18 1253.38 2554.05 1252.78 2554.97 1251.88 2555.95 1250.67 2556.92 1249.46 2557.71 1248.29 2558.3 1247.15 2558.89 1246.02 2559.37 1244.62 2559.75 1242.95L2562.3 1231.32 2566.94 1231.32 2563.02 1248.35C2562.63 1250.07 2562.43 1251.39 2562.43 1252.32 2562.43 1253.04 2562.55 1253.56 2562.78 1253.88 2563.01 1254.2 2563.38 1254.36 2563.88 1254.36 2564.42 1254.36 2564.99 1254.14 2565.6 1253.71 2566.21 1253.27 2567.07 1252.43 2568.18 1251.2L2569.71 1252.7C2568.08 1254.44 2566.69 1255.66 2565.55 1256.38 2564.4 1257.09 2563.18 1257.45 2561.9 1257.45 2560.79 1257.45 2559.9 1257.09 2559.24 1256.35 2558.57 1255.62 2558.24 1254.64 2558.24 1253.42 2558.24 1252.46 2558.46 1251.4 2558.89 1250.26L2558.57 1250.15C2556.79 1252.64 2555.11 1254.47 2553.53 1255.65 2551.95 1256.83 2550.32 1257.43 2548.66 1257.43 2546.99 1257.43 2545.71 1256.95 2544.82 1255.99 2543.92 1255.03 2543.47 1253.7 2543.47 1252 2543.47 1250.87 2543.73 1249.27 2544.25 1247.19L2546 1240.16C2546.48 1238.21 2546.72 1236.83 2546.72 1236.02 2546.72 1235.31 2546.61 1234.79 2546.37 1234.46 2546.14 1234.14 2545.77 1233.98 2545.27 1233.98 2544.72 1233.98 2544.13 1234.21 2543.51 1234.67 2542.9 1235.12 2542.05 1235.95 2540.98 1237.15L2539.44 1235.65C2540.97 1234.11 2542.11 1233.05 2542.88 1232.48 2543.65 1231.9 2544.39 1231.5 2545.1 1231.26 2545.8 1231.01 2546.6 1230.89 2547.47 1230.89Z" fill-rule="evenodd"/><text fill="#000000" fill-opacity="0" font-family="Arial,Arial_MSFontService,sans-serif" font-size="26.5601" x="2539.44" y="1254.13">𝑢</text><path d="M2591 1245.1 2624.08 1245.1 2624.08 1248.67 2591 1248.67ZM2591 1233.95 2624.08 1233.95 2624.08 1237.53 2591 1237.53Z" fill-rule="evenodd"/><text fill="#000000" fill-opacity="0" font-family="Arial,Arial_MSFontService,sans-serif" font-size="14.7168" x="2591" y="1246.83">=</text><path d="M2668.96 1230.79C2670.25 1230.79 2671.18 1231.12 2671.75 1231.79 2672.33 1232.46 2672.61 1233.36 2672.61 1234.49 2672.61 1235.35 2672.46 1236.34 2672.16 1237.45 2671.85 1238.56 2671.42 1239.73 2670.87 1240.96 2670.31 1242.2 2669.65 1243.47 2668.88 1244.76 2668.11 1246.06 2667.26 1247.32 2666.33 1248.55 2665.4 1249.78 2664.41 1250.93 2663.35 1252.01 2662.29 1253.1 2661.2 1254.04 2660.06 1254.85 2658.92 1255.65 2657.77 1256.29 2656.59 1256.77 2655.42 1257.24 2654.25 1257.48 2653.09 1257.48 2652.57 1257.48 2652.14 1257.35 2651.79 1257.09 2651.44 1256.83 2651.16 1256.46 2650.94 1255.99 2650.73 1255.51 2650.57 1254.96 2650.48 1254.31 2650.4 1253.67 2650.35 1252.96 2650.35 1252.19 2650.35 1251.17 2650.41 1250.08 2650.54 1248.91 2650.66 1247.75 2650.82 1246.58 2651.02 1245.39L2652.15 1237.96C2652.22 1237.53 2652.28 1237.12 2652.32 1236.73 2652.37 1236.35 2652.39 1236.07 2652.39 1235.89 2652.39 1235.33 2652.3 1234.88 2652.12 1234.52 2651.94 1234.16 2651.64 1233.98 2651.21 1233.98 2650.87 1233.98 2650.5 1234.08 2650.11 1234.29 2649.72 1234.5 2649.32 1234.76 2648.91 1235.08 2648.51 1235.4 2648.12 1235.75 2647.75 1236.12 2647.37 1236.48 2647.02 1236.83 2646.7 1237.15L2645.41 1235.65C2645.96 1235.07 2646.55 1234.5 2647.18 1233.94 2647.81 1233.38 2648.47 1232.87 2649.17 1232.41 2649.87 1231.95 2650.6 1231.59 2651.37 1231.31 2652.14 1231.03 2652.93 1230.89 2653.73 1230.89 2654.41 1230.89 2654.97 1231 2655.4 1231.23 2655.83 1231.45 2656.16 1231.75 2656.41 1232.11 2656.65 1232.48 2656.81 1232.88 2656.9 1233.32 2656.99 1233.76 2657.04 1234.2 2657.04 1234.63 2657.04 1234.88 2657.03 1235.12 2657.01 1235.35 2656.99 1235.58 2656.97 1235.8 2656.93 1236L2655.43 1245.72C2655.27 1246.74 2655.13 1247.74 2655.02 1248.71 2654.92 1249.69 2654.86 1250.55 2654.86 1251.3 2654.86 1252.05 2654.91 1252.66 2655 1253.13 2655.09 1253.59 2655.26 1253.83 2655.51 1253.83 2656.1 1253.83 2656.84 1253.59 2657.74 1253.12 2658.63 1252.64 2659.57 1251.99 2660.56 1251.16 2661.54 1250.32 2662.53 1249.34 2663.51 1248.2 2664.49 1247.06 2665.38 1245.83 2666.17 1244.51 2666.96 1243.18 2667.6 1241.79 2668.09 1240.32 2668.58 1238.85 2668.83 1237.37 2668.83 1235.89 2668.83 1235.24 2668.69 1234.75 2668.41 1234.4 2668.13 1234.05 2667.7 1233.87 2667.11 1233.87 2666.36 1233.87 2665.66 1234.16 2665.03 1234.75 2664.39 1235.33 2663.73 1236.09 2663.05 1237.04L2661.52 1235.67C2661.95 1235.03 2662.46 1234.41 2663.04 1233.82 2663.62 1233.23 2664.24 1232.71 2664.89 1232.26 2665.55 1231.81 2666.22 1231.46 2666.92 1231.19 2667.62 1230.92 2668.3 1230.79 2668.96 1230.79Z" fill-rule="evenodd"/><text fill="#000000" fill-opacity="0" font-family="Arial,Arial_MSFontService,sans-serif" font-size="26.6943" x="2645.41" y="1254.14">𝑣</text><path d="M2694.21 1245.1 2727.3 1245.1 2727.3 1248.67 2694.21 1248.67ZM2694.21 1233.95 2727.3 1233.95 2727.3 1237.53 2694.21 1237.53Z" fill-rule="evenodd"/><text fill="#000000" fill-opacity="0" font-family="Arial,Arial_MSFontService,sans-serif" font-size="14.7168" x="2694.21" y="1246.83">=</text><path d="M2761.97 1222.22C2760.74 1222.22 2759.7 1222.59 2758.87 1223.32 2758.04 1224.05 2757.37 1225.11 2756.86 1226.49 2756.35 1227.87 2755.98 1229.55 2755.77 1231.52 2755.55 1233.5 2755.45 1235.74 2755.45 1238.22 2755.45 1244.06 2755.99 1248.34 2757.07 1251.07 2758.16 1253.8 2759.83 1255.17 2762.11 1255.17 2764.27 1255.17 2765.88 1253.89 2766.93 1251.32 2767.98 1248.75 2768.5 1244.77 2768.5 1239.38 2768.5 1235.26 2768.23 1231.93 2767.69 1229.38 2767.16 1226.82 2766.41 1224.99 2765.45 1223.88 2764.49 1222.77 2763.33 1222.22 2761.97 1222.22ZM2762.11 1219.94C2766.03 1219.94 2768.95 1221.45 2770.86 1224.47 2772.78 1227.5 2773.74 1232.07 2773.74 1238.2 2773.74 1244.54 2772.71 1249.33 2770.66 1252.58 2768.61 1255.83 2765.62 1257.45 2761.68 1257.45 2757.81 1257.45 2754.93 1255.93 2753.04 1252.89 2751.15 1249.84 2750.21 1245.22 2750.21 1239.03 2750.21 1235.74 2750.5 1232.89 2751.08 1230.49 2751.66 1228.09 2752.48 1226.11 2753.53 1224.54 2754.57 1222.97 2755.83 1221.82 2757.3 1221.06 2758.77 1220.31 2760.37 1219.94 2762.11 1219.94Z" fill-rule="evenodd"/><text fill="#000000" fill-opacity="0" font-family="Arial,Arial_MSFontService,sans-serif" font-size="37.5171" x="2750.21" y="1252.76">0</text><path d="M2089.42 1583.5C2090.56 1583.5 2091.47 1583.89 2092.13 1584.66 2092.79 1585.43 2093.12 1586.46 2093.12 1587.77 2093.12 1589.19 2092.85 1590.95 2092.29 1593.06L2091.11 1597.71C2090.8 1598.89 2090.59 1599.81 2090.45 1600.47 2090.32 1601.14 2090.22 1601.71 2090.16 1602.19 2090.09 1602.68 2090.06 1603.08 2090.06 1603.4 2090.06 1604.64 2090.27 1605.53 2090.68 1606.07 2091.09 1606.62 2091.76 1606.89 2092.69 1606.89 2093.45 1606.89 2094.26 1606.59 2095.12 1605.99 2095.99 1605.39 2096.91 1604.49 2097.89 1603.28 2098.87 1602.07 2099.65 1600.9 2100.24 1599.76 2100.83 1598.63 2101.31 1597.22 2101.69 1595.56L2104.24 1583.93 2108.89 1583.93 2104.97 1600.96C2104.57 1602.68 2104.38 1604 2104.38 1604.93 2104.38 1605.65 2104.49 1606.17 2104.73 1606.49 2104.96 1606.81 2105.32 1606.97 2105.83 1606.97 2106.36 1606.97 2106.94 1606.75 2107.54 1606.32 2108.15 1605.88 2109.01 1605.04 2110.12 1603.8L2111.65 1605.31C2110.02 1607.05 2108.64 1608.27 2107.49 1608.99 2106.35 1609.7 2105.13 1610.06 2103.84 1610.06 2102.73 1610.06 2101.84 1609.69 2101.18 1608.96 2100.52 1608.23 2100.19 1607.25 2100.19 1606.03 2100.19 1605.07 2100.4 1604.01 2100.83 1602.86L2100.51 1602.76C2098.74 1605.25 2097.06 1607.08 2095.47 1608.26 2093.89 1609.44 2092.26 1610.03 2090.6 1610.03 2088.93 1610.03 2087.65 1609.56 2086.76 1608.6 2085.86 1607.64 2085.42 1606.31 2085.42 1604.61 2085.42 1603.48 2085.68 1601.88 2086.19 1599.8L2087.94 1592.77C2088.42 1590.82 2088.67 1589.44 2088.67 1588.63 2088.67 1587.91 2088.55 1587.4 2088.32 1587.07 2088.08 1586.75 2087.72 1586.59 2087.22 1586.59 2086.66 1586.59 2086.07 1586.82 2085.46 1587.27 2084.84 1587.73 2083.99 1588.56 2082.92 1589.76L2081.39 1588.26C2082.91 1586.72 2084.06 1585.66 2084.83 1585.09 2085.59 1584.51 2086.33 1584.11 2087.04 1583.86 2087.75 1583.62 2088.54 1583.5 2089.42 1583.5Z" fill-rule="evenodd"/><text fill="#000000" fill-opacity="0" font-family="Arial,Arial_MSFontService,sans-serif" font-size="26.5601" x="2081.39" y="1606.74">𝑢</text><path d="M2132.94 1597.71 2166.02 1597.71 2166.02 1601.28 2132.94 1601.28ZM2132.94 1586.56 2166.02 1586.56 2166.02 1590.14 2132.94 1590.14Z" fill-rule="evenodd"/><text fill="#000000" fill-opacity="0" font-family="Arial,Arial_MSFontService,sans-serif" font-size="14.7168" x="2132.94" y="1599.44">=</text><path d="M2210.9 1583.39C2212.19 1583.39 2213.12 1583.73 2213.7 1584.4 2214.27 1585.07 2214.56 1585.97 2214.56 1587.1 2214.56 1587.96 2214.4 1588.94 2214.1 1590.05 2213.8 1591.16 2213.37 1592.34 2212.81 1593.57 2212.26 1594.81 2211.59 1596.07 2210.82 1597.37 2210.05 1598.67 2209.2 1599.93 2208.27 1601.16 2207.34 1602.39 2206.35 1603.54 2205.29 1604.62 2204.24 1605.71 2203.14 1606.65 2202 1607.46 2200.86 1608.26 2199.71 1608.9 2198.54 1609.38 2197.36 1609.85 2196.2 1610.09 2195.03 1610.09 2194.51 1610.09 2194.08 1609.96 2193.73 1609.7 2193.38 1609.44 2193.1 1609.07 2192.88 1608.6 2192.67 1608.12 2192.52 1607.56 2192.43 1606.92 2192.34 1606.28 2192.29 1605.57 2192.29 1604.8 2192.29 1603.78 2192.36 1602.69 2192.48 1601.52 2192.61 1600.36 2192.77 1599.19 2192.97 1598L2194.09 1590.56C2194.16 1590.14 2194.22 1589.73 2194.27 1589.34 2194.31 1588.96 2194.33 1588.68 2194.33 1588.5 2194.33 1587.94 2194.25 1587.49 2194.07 1587.13 2193.89 1586.77 2193.58 1586.59 2193.15 1586.59 2192.81 1586.59 2192.45 1586.69 2192.05 1586.9 2191.66 1587.1 2191.26 1587.37 2190.86 1587.69 2190.45 1588.01 2190.06 1588.36 2189.69 1588.73 2189.31 1589.09 2188.96 1589.44 2188.64 1589.76L2187.35 1588.26C2187.91 1587.68 2188.5 1587.11 2189.12 1586.55 2189.75 1585.99 2190.41 1585.48 2191.11 1585.02 2191.81 1584.56 2192.54 1584.2 2193.31 1583.92 2194.08 1583.64 2194.87 1583.5 2195.68 1583.5 2196.36 1583.5 2196.91 1583.61 2197.34 1583.84 2197.77 1584.06 2198.11 1584.36 2198.35 1584.72 2198.59 1585.09 2198.76 1585.49 2198.85 1585.93 2198.94 1586.37 2198.98 1586.8 2198.98 1587.23 2198.98 1587.49 2198.97 1587.73 2198.95 1587.96 2198.94 1588.19 2198.91 1588.41 2198.87 1588.6L2197.37 1598.33C2197.21 1599.35 2197.07 1600.34 2196.97 1601.32 2196.86 1602.3 2196.81 1603.16 2196.81 1603.91 2196.81 1604.66 2196.85 1605.27 2196.94 1605.74 2197.03 1606.2 2197.2 1606.44 2197.45 1606.44 2198.04 1606.44 2198.78 1606.2 2199.68 1605.72 2200.57 1605.25 2201.51 1604.6 2202.5 1603.76 2203.48 1602.93 2204.47 1601.95 2205.45 1600.81 2206.44 1599.67 2207.32 1598.44 2208.11 1597.12 2208.9 1595.79 2209.54 1594.4 2210.03 1592.93 2210.52 1591.46 2210.77 1589.98 2210.77 1588.5 2210.77 1587.85 2210.63 1587.36 2210.35 1587.01 2210.08 1586.66 2209.64 1586.48 2209.05 1586.48 2208.3 1586.48 2207.61 1586.77 2206.97 1587.36 2206.33 1587.94 2205.68 1588.7 2205 1589.65L2203.47 1588.28C2203.9 1587.64 2204.4 1587.02 2204.98 1586.43 2205.56 1585.84 2206.18 1585.32 2206.84 1584.87 2207.49 1584.42 2208.17 1584.07 2208.86 1583.8 2209.56 1583.53 2210.24 1583.39 2210.9 1583.39Z" fill-rule="evenodd"/><text fill="#000000" fill-opacity="0" font-family="Arial,Arial_MSFontService,sans-serif" font-size="26.6943" x="2187.35" y="1606.75">𝑣</text><path d="M2236.16 1597.71 2269.24 1597.71 2269.24 1601.28 2236.16 1601.28ZM2236.16 1586.56 2269.24 1586.56 2269.24 1590.14 2236.16 1590.14Z" fill-rule="evenodd"/><text fill="#000000" fill-opacity="0" font-family="Arial,Arial_MSFontService,sans-serif" font-size="14.7168" x="2236.16" y="1599.44">=</text><path d="M2303.92 1574.83C2302.68 1574.83 2301.65 1575.19 2300.81 1575.93 2299.98 1576.66 2299.31 1577.72 2298.8 1579.1 2298.29 1580.48 2297.93 1582.15 2297.71 1584.13 2297.5 1586.11 2297.39 1588.34 2297.39 1590.83 2297.39 1596.67 2297.93 1600.95 2299.01 1603.68 2300.1 1606.41 2301.78 1607.78 2304.05 1607.78 2306.22 1607.78 2307.82 1606.49 2308.87 1603.93 2309.92 1601.36 2310.44 1597.38 2310.44 1591.99 2310.44 1587.87 2310.17 1584.54 2309.64 1581.98 2309.1 1579.43 2308.35 1577.6 2307.39 1576.49 2306.44 1575.38 2305.28 1574.83 2303.92 1574.83ZM2304.05 1572.54C2307.97 1572.54 2310.89 1574.06 2312.81 1577.08 2314.72 1580.11 2315.68 1584.68 2315.68 1590.81 2315.68 1597.14 2314.65 1601.94 2312.6 1605.19 2310.55 1608.44 2307.56 1610.06 2303.62 1610.06 2299.75 1610.06 2296.88 1608.54 2294.99 1605.5 2293.1 1602.45 2292.15 1597.83 2292.15 1591.64 2292.15 1588.34 2292.44 1585.5 2293.03 1583.1 2293.61 1580.7 2294.42 1578.72 2295.47 1577.15 2296.52 1575.58 2297.78 1574.42 2299.24 1573.67 2300.71 1572.92 2302.31 1572.54 2304.05 1572.54Z" fill-rule="evenodd"/><text fill="#000000" fill-opacity="0" font-family="Arial,Arial_MSFontService,sans-serif" font-size="37.5171" x="2292.15" y="1605.37">0</text></g></svg>