<svg width="2339" height="1299" xmlns="http://www.w3.org/2000/svg" xmlns:xlink="http://www.w3.org/1999/xlink" xml:space="preserve" overflow="hidden"><defs><clipPath id="clip0"><rect x="644" y="981" width="2339" height="1299"/></clipPath></defs><g clip-path="url(#clip0)" transform="translate(-644 -981)"><rect x="644" y="981" width="2339" height="1299" fill="#FFFFFF"/><rect x="2512" y="1327" width="151" height="38.0001" fill="#FFFFFF"/><rect x="1713" y="1993" width="974" height="122" fill="#FFFFFF"/><text font-family="Arial,Arial_MSFontService,sans-serif" font-weight="400" font-size="73" transform="matrix(1 0 0 1 2080.26 2081)">No</text><text font-family="Arial,Arial_MSFontService,sans-serif" font-weight="400" font-size="73" transform="matrix(1 0 0 1 2173.65 2081)">-</text><text font-family="Arial,Arial_MSFontService,sans-serif" font-weight="400" font-size="73" transform="matrix(1 0 0 1 2198.28 2081)">Slip</text><path d="M0 0 974.409 0.000360892" stroke="#000000" stroke-width="4.58333" stroke-miterlimit="8" fill="#FFFFFF" fill-rule="evenodd" transform="matrix(-1 0 0 1 2687.91 2115.5)"/><path d="M0 0 454.724 0.000360892" stroke="#AFABAB" stroke-width="4.58333" stroke-miterlimit="8" fill="#FFFFFF" fill-rule="evenodd" transform="matrix(-1 0 0 1 1713.22 2115.5)"/><path d="M0 0 1429.13 0.000360892" stroke="#000000" stroke-width="4.58333" stroke-miterlimit="8" fill="#FFFFFF" fill-rule="evenodd" transform="matrix(-1 0 0 1 2687.63 1139.5)"/><path d="M2.12191e-06-1.14583 171.965-1.14551 171.965 1.14615-2.12191e-06 1.14583ZM167.382-13.7497 194.882 0.000360892 167.382 13.7503Z" transform="matrix(1 -1.22465e-16 -1.22465e-16 -1 1019 1263)"/><path d="M2.12191e-06-1.14583 171.965-1.14551 171.965 1.14615-2.12191e-06 1.14583ZM167.382-13.7497 194.882 0.000360892 167.382 13.7503Z" transform="matrix(1 -1.22465e-16 -1.22465e-16 -1 1019 1393)"/><path d="M2.12191e-06-1.14583 171.965-1.14551 171.965 1.14615-2.12191e-06 1.14583ZM167.382-13.7497 194.882 0.000360892 167.382 13.7503Z" transform="matrix(1 -1.22465e-16 -1.22465e-16 -1 1019 1523)"/><path d="M2.12191e-06-1.14583 171.965-1.14551 171.965 1.14615-2.12191e-06 1.14583ZM167.382-13.7497 194.882 0.000360892 167.382 13.7503Z" transform="matrix(1 -1.22465e-16 -1.22465e-16 -1 1019 1654)"/><path d="M2.12191e-06-1.14583 171.965-1.14551 171.965 1.14615-2.12191e-06 1.14583ZM167.382-13.7497 194.882 0.000360892 167.382 13.7503Z" transform="matrix(1 -1.22465e-16 -1.22465e-16 -1 1019 1788)"/><path d="M2.12191e-06-1.14583 171.965-1.14551 171.965 1.14615-2.12191e-06 1.14583ZM167.382-13.7497 194.882 0.000360892 167.382 13.7503Z" transform="matrix(1 -1.22465e-16 -1.22465e-16 -1 1019 1915)"/><rect x="708" y="1514" width="195" height="133" fill="#FFFFFF"/><path d="M759.728 1551.97 776.02 1551.97 775.574 1553.95C774.547 1554.17 773.811 1554.41 773.365 1554.68 772.919 1554.95 772.514 1555.36 772.149 1555.9 771.785 1556.44 771.42 1557.28 771.055 1558.43 770.69 1559.58 770.224 1561.45 769.657 1564.04L764.591 1586.74C764.24 1588.28 763.963 1589.74 763.76 1591.14 763.558 1592.53 763.456 1593.97 763.456 1595.45 763.456 1598.4 764.179 1600.63 765.624 1602.14 767.07 1603.65 769.252 1604.41 772.17 1604.41 774.925 1604.41 777.222 1603.84 779.059 1602.71 780.896 1601.57 782.369 1599.94 783.477 1597.8 784.584 1595.67 785.517 1592.9 786.273 1589.49L791.906 1564C792.501 1561.3 792.798 1559.13 792.798 1557.48 792.798 1556.21 792.481 1555.32 791.846 1554.82 791.211 1554.32 790.204 1554.03 788.826 1553.95L789.272 1551.97 804.673 1551.97 804.227 1553.95C803.227 1554.17 802.491 1554.42 802.018 1554.7 801.545 1554.98 801.126 1555.4 800.762 1555.94 800.397 1556.48 800.039 1557.33 799.688 1558.49 799.336 1559.65 798.877 1561.5 798.31 1564.04L793.041 1588.32C791.987 1593.15 790.501 1597.01 788.583 1599.87 786.665 1602.73 784.267 1604.8 781.39 1606.07 778.512 1607.34 774.993 1607.97 770.832 1607.97 766.158 1607.97 762.578 1606.85 760.092 1604.59 757.607 1602.33 756.364 1599.04 756.364 1594.72 756.364 1593.21 756.519 1591.47 756.83 1589.51 757.141 1587.56 757.58 1585.35 758.147 1582.89L762.362 1564C762.983 1561.22 763.294 1559.04 763.294 1557.48 763.294 1556.26 762.983 1555.39 762.362 1554.86 761.741 1554.34 760.714 1554.03 759.282 1553.95Z" fill-rule="evenodd"/><text fill="#000000" fill-opacity="0" font-family="Arial,Arial_MSFontService,sans-serif" font-size="56.0088" x="756.364" y="1600.97">ğ‘ˆ</text><path d="M841.404 1598.1C839.24 1598.1 837.398 1598.99 835.879 1600.76 834.36 1602.54 832.826 1605.07 831.277 1608.34 832.687 1610.94 834.127 1612.89 835.596 1614.18 837.066 1615.47 839.021 1616.12 841.464 1616.12 843.628 1616.12 845.41 1615.32 846.81 1613.72 848.21 1612.12 848.91 1609.92 848.91 1607.12 848.91 1604.42 848.255 1602.24 846.944 1600.58 845.634 1598.93 843.787 1598.1 841.404 1598.1ZM817.785 1597.17C815.561 1597.17 813.754 1598.09 812.364 1599.91 810.974 1601.74 810.279 1604.1 810.279 1607 810.279 1609.39 810.899 1611.35 812.14 1612.9 813.381 1614.45 815.183 1615.22 817.546 1615.22 819.79 1615.22 821.821 1614.15 823.637 1612.01 825.454 1609.86 826.75 1607.63 827.524 1605.3 826.214 1602.72 824.774 1600.72 823.206 1599.3 821.637 1597.88 819.83 1597.17 817.785 1597.17ZM817.844 1594.05C820.406 1594.05 822.59 1594.8 824.397 1596.29 826.204 1597.79 827.792 1599.81 829.163 1602.36 830.175 1600.13 831.714 1598.2 833.779 1596.56 835.844 1594.92 838.287 1594.11 841.106 1594.11 844.562 1594.11 847.376 1595.25 849.551 1597.55 851.725 1599.84 852.812 1602.94 852.812 1606.85 852.812 1610.29 851.77 1613.21 849.685 1615.63 847.6 1618.04 844.909 1619.24 841.613 1619.24 838.753 1619.24 836.381 1618.48 834.494 1616.97 832.608 1615.45 830.989 1613.54 829.639 1611.23 828.686 1613.26 827.212 1615.1 825.216 1616.76 823.22 1618.42 820.763 1619.24 817.844 1619.24 814.131 1619.24 811.301 1618.07 809.355 1615.71 807.409 1613.36 806.437 1610.5 806.437 1607.12 806.437 1603.43 807.409 1600.33 809.355 1597.81 811.301 1595.3 814.131 1594.05 817.844 1594.05Z" fill-rule="evenodd"/><text fill="#000000" fill-opacity="0" font-family="Arial,Arial_MSFontService,sans-serif" font-size="25.1982" x="806.437" y="1616.09">âˆ</text><path d="M0 0 974.409 0.000360892" fill="#FFFFFF" fill-rule="evenodd" transform="matrix(-1 0 0 1 2687.91 2183.5)"/><path d="M22.9167-2.29166 951.493-2.29131 951.493 2.29202 22.9167 2.29168ZM27.5 13.75 0 0 27.5-13.75ZM946.909-13.7496 974.409 0.000360892 946.909 13.7504Z" transform="matrix(-1 0 0 1 2687.91 2183.5)"/><rect x="2043" y="2122" width="310" height="123" fill="#FFFFFF"/><path d="M2130.38 2161.7C2128.74 2161.7 2127.37 2162.18 2126.26 2163.16 2125.16 2164.13 2124.26 2165.53 2123.59 2167.36 2122.91 2169.19 2122.43 2171.42 2122.14 2174.05 2121.86 2176.67 2121.72 2179.64 2121.72 2182.94 2121.72 2190.69 2122.43 2196.37 2123.87 2200 2125.31 2203.62 2127.54 2205.43 2130.56 2205.43 2133.43 2205.43 2135.56 2203.73 2136.95 2200.32 2138.34 2196.91 2139.04 2191.63 2139.04 2184.47 2139.04 2179.01 2138.68 2174.58 2137.97 2171.2 2137.26 2167.81 2136.26 2165.38 2134.99 2163.91 2133.72 2162.43 2132.18 2161.7 2130.38 2161.7ZM2130.56 2158.67C2135.76 2158.67 2139.63 2160.67 2142.18 2164.69 2144.72 2168.71 2145.99 2174.78 2145.99 2182.9 2145.99 2191.32 2144.63 2197.68 2141.91 2201.99 2139.19 2206.31 2135.21 2208.46 2129.99 2208.46 2124.85 2208.46 2121.03 2206.44 2118.53 2202.4 2116.02 2198.36 2114.77 2192.23 2114.77 2184.01 2114.77 2179.64 2115.15 2175.86 2115.92 2172.67 2116.7 2169.49 2117.78 2166.86 2119.17 2164.78 2120.56 2162.7 2122.23 2161.16 2124.18 2160.16 2126.12 2159.17 2128.25 2158.67 2130.56 2158.67Z" fill-rule="evenodd"/><text fill="#000000" fill-opacity="0" font-family="Arial,Arial_MSFontService,sans-serif" font-size="49.7954" x="2114.77" y="2202.24">0</text><path d="M2154.73 2199.62 2161.93 2199.62 2161.93 2207.89 2154.73 2207.89Z" fill-rule="evenodd"/><text fill="#000000" fill-opacity="0" font-family="Arial,Arial_MSFontService,sans-serif" font-size="8.26953" x="2154.73" y="2206.86">.</text><path d="M2196.22 2156.88 2199 2156.88 2198.46 2165.15 2177.97 2165.15 2177.97 2180.8C2179.2 2180.28 2180.54 2179.89 2181.99 2179.63 2183.44 2179.36 2184.89 2179.23 2186.34 2179.23 2189.17 2179.23 2191.68 2179.81 2193.86 2180.96 2196.05 2182.11 2197.74 2183.75 2198.92 2185.88 2200.11 2188.01 2200.71 2190.47 2200.71 2193.28 2200.71 2196.46 2200.04 2199.19 2198.71 2201.48 2197.38 2203.76 2195.46 2205.49 2192.94 2206.68 2190.42 2207.87 2187.44 2208.46 2183.99 2208.46 2179.88 2208.46 2175.58 2207.62 2171.09 2205.93L2171.09 2198.37 2175.4 2198.37C2176.11 2200.8 2177.19 2202.58 2178.63 2203.72 2180.06 2204.86 2181.92 2205.43 2184.2 2205.43 2187.36 2205.43 2189.75 2204.48 2191.37 2202.58 2192.98 2200.68 2193.79 2197.84 2193.79 2194.06 2193.79 2191.54 2193.36 2189.46 2192.51 2187.81 2191.65 2186.15 2190.5 2184.96 2189.05 2184.22 2187.6 2183.49 2185.91 2183.12 2183.99 2183.12 2182.37 2183.12 2180.98 2183.22 2179.82 2183.42 2178.66 2183.62 2177.41 2183.94 2176.08 2184.37L2173.23 2182.69 2173.23 2159.24 2192.87 2159.24C2193.67 2159.24 2194.26 2159.17 2194.61 2159.04 2194.97 2158.91 2195.25 2158.71 2195.47 2158.43 2195.68 2158.16 2195.93 2157.64 2196.22 2156.88Z" fill-rule="evenodd"/><text fill="#000000" fill-opacity="0" font-family="Arial,Arial_MSFontService,sans-serif" font-size="51.5776" x="2171.09" y="2202.01">5</text><path d="M2233.69 2173.21C2235.18 2173.21 2236.37 2173.7 2237.23 2174.69 2238.1 2175.67 2238.53 2176.96 2238.53 2178.56 2238.53 2179.86 2238.26 2181.25 2237.71 2182.73L2238.14 2182.87C2240.33 2179.61 2242.5 2177.2 2244.67 2175.62 2246.83 2174.03 2249.01 2173.24 2251.22 2173.24 2253.5 2173.24 2255.24 2173.89 2256.43 2175.19 2257.62 2176.48 2258.21 2178.35 2258.21 2180.8L2258.21 2181.3C2258.21 2181.47 2258.2 2181.65 2258.17 2181.84 2260.22 2178.94 2262.26 2176.78 2264.29 2175.37 2266.32 2173.95 2268.43 2173.24 2270.61 2173.24 2272.8 2173.24 2274.49 2173.87 2275.68 2175.13 2276.86 2176.39 2277.46 2178.16 2277.46 2180.45 2277.46 2181.94 2277.11 2184.07 2276.42 2186.83L2274.11 2196.16C2273.47 2198.75 2273.15 2200.58 2273.15 2201.65 2273.15 2202.6 2273.3 2203.29 2273.61 2203.72 2273.92 2204.15 2274.4 2204.36 2275.07 2204.36 2275.78 2204.36 2276.54 2204.07 2277.35 2203.49 2278.16 2202.91 2279.3 2201.8 2280.77 2200.16L2282.8 2202.15C2280.76 2204.31 2278.98 2205.91 2277.46 2206.93 2275.94 2207.95 2274.2 2208.46 2272.25 2208.46 2270.71 2208.46 2269.47 2207.91 2268.55 2206.8 2267.62 2205.7 2267.16 2204.29 2267.16 2202.58 2267.16 2201.04 2267.55 2198.77 2268.33 2195.77L2269.9 2189.61C2270.47 2187.37 2270.85 2185.72 2271.02 2184.65 2271.2 2183.58 2271.29 2182.71 2271.29 2182.05 2271.29 2180.41 2271.02 2179.23 2270.47 2178.5 2269.93 2177.78 2269.03 2177.42 2267.8 2177.42 2266.8 2177.42 2265.73 2177.79 2264.59 2178.54 2263.45 2179.29 2262.25 2180.45 2260.99 2182.03 2259.73 2183.61 2258.7 2185.17 2257.91 2186.7 2257.11 2188.23 2256.48 2190.1 2256 2192.31L2252.76 2207.89 2246.59 2207.89 2250.69 2189.78C2251.19 2187.57 2251.53 2185.94 2251.7 2184.88 2251.88 2183.83 2251.97 2182.92 2251.97 2182.16 2251.97 2180.45 2251.67 2179.23 2251.06 2178.5 2250.46 2177.78 2249.51 2177.42 2248.23 2177.42 2247.33 2177.42 2246.3 2177.79 2245.15 2178.54 2243.99 2179.29 2242.76 2180.49 2241.46 2182.14 2240.15 2183.79 2239.13 2185.38 2238.39 2186.9 2237.66 2188.42 2237.04 2190.27 2236.54 2192.46L2233.15 2207.89 2226.99 2207.89 2232.19 2185.29C2232.71 2183.01 2232.97 2181.25 2232.97 2180.02 2232.97 2179.07 2232.82 2178.38 2232.51 2177.95 2232.2 2177.52 2231.71 2177.31 2231.05 2177.31 2230.31 2177.31 2229.53 2177.61 2228.71 2178.22 2227.89 2178.82 2226.77 2179.92 2225.35 2181.51L2223.31 2179.52C2225.41 2177.33 2227.21 2175.73 2228.71 2174.72 2230.22 2173.71 2231.88 2173.21 2233.69 2173.21Z" fill-rule="evenodd"/><text fill="#000000" fill-opacity="0" font-family="Arial,Arial_MSFontService,sans-serif" font-size="35.2524" x="2223.31" y="2204.06">ğ‘š</text><path d="M1713.5 2115.5 1713.5 2245.42" stroke="#000000" stroke-width="4.58333" stroke-miterlimit="8" fill="#FFFFFF" fill-rule="evenodd"/><path d="M2687.5 2115.5 2687.5 2245.42" stroke="#000000" stroke-width="4.58333" stroke-miterlimit="8" fill="#FFFFFF" fill-rule="evenodd"/><path d="M0 0 974.409 0.000360892" fill="#FFFFFF" fill-rule="evenodd" transform="matrix(1.83697e-16 1 1 -1.83697e-16 2819.5 1141.5)"/><path d="M22.9167-2.29166 951.493-2.29131 951.493 2.29202 22.9167 2.29168ZM27.5 13.75 0 0 27.5-13.75ZM946.909-13.7496 974.409 0.000360892 946.909 13.7504Z" transform="matrix(1.83697e-16 1 1 -1.83697e-16 2819.5 1141.5)"/><rect x="2756" y="1473" width="122" height="310" fill="#FFFFFF"/><path d="M2795.34 1695.55C2795.34 1697.19 2795.83 1698.56 2796.8 1699.67 2797.78 1700.77 2799.18 1701.66 2801.01 1702.34 2802.84 1703.02 2805.07 1703.5 2807.69 1703.78 2810.32 1704.07 2813.28 1704.21 2816.59 1704.21 2824.33 1704.21 2830.02 1703.49 2833.64 1702.05 2837.27 1700.62 2839.08 1698.39 2839.08 1695.37 2839.08 1692.5 2837.37 1690.36 2833.96 1688.97 2830.55 1687.58 2825.27 1686.89 2818.12 1686.89 2812.65 1686.89 2808.23 1687.24 2804.84 1687.96 2801.46 1688.67 2799.03 1689.66 2797.55 1690.93 2796.08 1692.21 2795.34 1693.74 2795.34 1695.55ZM2792.31 1695.37C2792.31 1690.17 2794.32 1686.29 2798.34 1683.75 2802.35 1681.21 2808.42 1679.94 2816.55 1679.94 2824.96 1679.94 2831.33 1681.3 2835.64 1684.02 2839.95 1686.74 2842.11 1690.71 2842.11 1695.94 2842.11 1701.07 2840.09 1704.89 2836.05 1707.4 2832.01 1709.91 2825.88 1711.16 2817.66 1711.16 2813.28 1711.16 2809.5 1710.78 2806.32 1710 2803.14 1709.23 2800.5 1708.15 2798.43 1706.76 2796.35 1705.37 2794.81 1703.7 2793.81 1701.75 2792.81 1699.8 2792.31 1697.68 2792.31 1695.37Z" fill-rule="evenodd"/><text fill="#000000" fill-opacity="0" font-family="Arial,Arial_MSFontService,sans-serif" font-size="31.2246" x="2792.31" y="1707.26">0</text><path d="M2833.27 1671.2 2833.27 1664 2841.54 1664 2841.54 1671.2Z" fill-rule="evenodd"/><text fill="#000000" fill-opacity="0" font-family="Arial,Arial_MSFontService,sans-serif" font-size="7.2002" x="2833.27" y="1670.3">.</text><path d="M2790.53 1629.71 2790.53 1626.93 2798.8 1627.47 2798.8 1647.96 2814.45 1647.96C2813.92 1646.73 2813.53 1645.38 2813.27 1643.93 2813.01 1642.48 2812.88 1641.03 2812.88 1639.58 2812.88 1636.76 2813.46 1634.25 2814.61 1632.06 2815.76 1629.88 2817.4 1628.19 2819.53 1627 2821.65 1625.81 2824.12 1625.22 2826.92 1625.22 2830.11 1625.22 2832.84 1625.89 2835.12 1627.22 2837.4 1628.55 2839.14 1630.47 2840.33 1632.99 2841.51 1635.51 2842.11 1638.49 2842.11 1641.94 2842.11 1646.05 2841.26 1650.35 2839.58 1654.84L2832.02 1654.84 2832.02 1650.53C2834.44 1649.81 2836.23 1648.74 2837.37 1647.3 2838.51 1645.86 2839.08 1644 2839.08 1641.72 2839.08 1638.56 2838.13 1636.17 2836.23 1634.56 2834.33 1632.94 2831.49 1632.13 2827.71 1632.13 2825.19 1632.13 2823.1 1632.56 2821.45 1633.42 2819.8 1634.27 2818.61 1635.43 2817.87 1636.88 2817.13 1638.33 2816.76 1640.01 2816.76 1641.94 2816.76 1643.55 2816.87 1644.94 2817.07 1646.11 2817.27 1647.27 2817.58 1648.52 2818.01 1649.85L2816.34 1652.7 2792.88 1652.7 2792.88 1633.06C2792.88 1632.25 2792.82 1631.67 2792.69 1631.32 2792.56 1630.96 2792.35 1630.67 2792.08 1630.46 2791.81 1630.25 2791.29 1630 2790.53 1629.71Z" fill-rule="evenodd"/><text fill="#000000" fill-opacity="0" font-family="Arial,Arial_MSFontService,sans-serif" font-size="29.6206" x="2790.53" y="1651.14">5</text><path d="M2806.86 1592.24C2806.86 1590.74 2807.35 1589.56 2808.33 1588.69 2809.32 1587.83 2810.61 1587.39 2812.2 1587.39 2813.51 1587.39 2814.9 1587.67 2816.37 1588.21L2816.51 1587.78C2813.26 1585.6 2810.84 1583.42 2809.26 1581.26 2807.68 1579.1 2806.89 1576.91 2806.89 1574.7 2806.89 1572.42 2807.54 1570.69 2808.83 1569.5 2810.13 1568.31 2812 1567.72 2814.45 1567.72L2814.95 1567.72C2815.11 1567.72 2815.29 1567.73 2815.48 1567.75 2812.58 1565.71 2810.43 1563.67 2809.01 1561.64 2807.6 1559.61 2806.89 1557.5 2806.89 1555.31 2806.89 1553.13 2807.52 1551.44 2808.78 1550.25 2810.04 1549.06 2811.81 1548.47 2814.09 1548.47 2815.59 1548.47 2817.71 1548.81 2820.47 1549.5L2829.81 1551.82C2832.4 1552.46 2834.23 1552.78 2835.3 1552.78 2836.25 1552.78 2836.94 1552.63 2837.37 1552.32 2837.79 1552.01 2838.01 1551.52 2838.01 1550.86 2838.01 1550.14 2837.72 1549.38 2837.14 1548.58 2836.55 1547.77 2835.44 1546.63 2833.8 1545.15L2835.8 1543.12C2837.96 1545.17 2839.55 1546.95 2840.57 1548.47 2841.6 1549.99 2842.11 1551.72 2842.11 1553.67 2842.11 1555.22 2841.56 1556.45 2840.45 1557.38 2839.35 1558.31 2837.94 1558.77 2836.23 1558.77 2834.68 1558.77 2832.41 1558.38 2829.42 1557.59L2823.25 1556.03C2821.02 1555.46 2819.37 1555.08 2818.3 1554.9 2817.23 1554.72 2816.36 1554.64 2815.7 1554.64 2814.06 1554.64 2812.87 1554.91 2812.15 1555.46 2811.42 1556 2811.06 1556.89 2811.06 1558.13 2811.06 1559.13 2811.44 1560.2 2812.18 1561.34 2812.93 1562.48 2814.1 1563.68 2815.68 1564.94 2817.26 1566.2 2818.81 1567.22 2820.35 1568.02 2821.88 1568.82 2823.75 1569.45 2825.96 1569.93L2841.54 1573.17 2841.54 1579.34 2823.43 1575.24C2821.22 1574.74 2819.59 1574.4 2818.53 1574.22 2817.47 1574.04 2816.56 1573.95 2815.8 1573.95 2814.09 1573.95 2812.87 1574.26 2812.15 1574.86 2811.42 1575.47 2811.06 1576.41 2811.06 1577.7 2811.06 1578.6 2811.44 1579.63 2812.18 1580.78 2812.93 1581.93 2814.13 1583.16 2815.78 1584.47 2817.44 1585.78 2819.02 1586.8 2820.54 1587.54 2822.06 1588.27 2823.92 1588.89 2826.1 1589.39L2841.54 1592.78 2841.54 1598.94 2818.94 1593.74C2816.66 1593.21 2814.9 1592.95 2813.66 1592.95 2812.71 1592.95 2812.02 1593.11 2811.6 1593.42 2811.17 1593.73 2810.95 1594.21 2810.95 1594.88 2810.95 1595.61 2811.26 1596.39 2811.86 1597.21 2812.47 1598.03 2813.57 1599.16 2815.16 1600.58L2813.16 1602.61C2810.98 1600.52 2809.38 1598.72 2808.37 1597.21 2807.36 1595.7 2806.86 1594.05 2806.86 1592.24Z" fill-rule="evenodd"/><text fill="#000000" fill-opacity="0" font-family="Arial,Arial_MSFontService,sans-serif" font-size="59.4907" x="2806.86" y="1595.18">ğ‘š</text><path d="M2814.42 2115.5 2684.5 2115.5" stroke="#000000" stroke-width="4.58333" stroke-miterlimit="8" stroke-dasharray="36.6667 13.75" fill="#FFFFFF" fill-rule="evenodd"/><path d="M2814.42 1139.5 2684.5 1139.5" stroke="#000000" stroke-width="4.58333" stroke-miterlimit="8" stroke-dasharray="36.6667 13.75" fill="#FFFFFF" fill-rule="evenodd"/><rect x="1019" y="1993" width="975" height="122" fill="#FFFFFF"/><text font-family="Arial,Arial_MSFontService,sans-serif" font-weight="400" font-size="73" transform="matrix(1 0 0 1 1445.93 2080)">Slip</text><path d="M1258.5 2116C1258.5 2112.41 1261.41 2109.5 1265 2109.5 1268.59 2109.5 1271.5 2112.41 1271.5 2116 1271.5 2119.59 1268.59 2122.5 1265 2122.5 1261.41 2122.5 1258.5 2119.59 1258.5 2116Z" stroke="#000000" stroke-width="4.58333" stroke-miterlimit="8" fill="#FFFFFF" fill-rule="evenodd"/><rect x="1507" y="1016" width="974" height="123" fill="#FFFFFF"/><text font-family="Arial,Arial_MSFontService,sans-serif" font-weight="400" font-size="73" transform="matrix(1 0 0 1 1933.13 1104)">Slip</text></g></svg>